<?xml version="1.0" standalone="no"?>
<!DOCTYPE svg PUBLIC "-//W3C//DTD SVG 20010904//EN"
 "http://www.w3.org/TR/2001/REC-SVG-20010904/DTD/svg10.dtd">
<svg version="1.0" xmlns="http://www.w3.org/2000/svg"
 width="40px" height="40px" viewBox="0 0 1280.000000 1280.000000"
 preserveAspectRatio="xMidYMid meet" >
<metadata>
Created by potrace 1.15, written by Peter Selinger 2001-2017
</metadata>
<g transform="translate(0.000000,1280.000000) scale(0.100000,-0.100000)"
fill="#666" stroke="none">
<path d="M6265 11680 c-99 -16 -306 -38 -460 -50 -285 -22 -317 -27 -475 -85
-51 -18 -59 -24 -40 -27 16 -3 2 -7 -35 -12 -55 -7 -204 -63 -205 -77 0 -9
220 17 466 55 210 33 251 36 440 36 114 0 205 -2 203 -4 -8 -8 -642 -128 -679
-129 -19 -1 -135 4 -258 11 l-223 13 -97 -52 c-53 -28 -101 -54 -106 -57 -5
-3 -1 -9 10 -13 16 -6 14 -8 -10 -8 -38 -1 -139 -58 -256 -145 -52 -39 -97
-73 -100 -76 -3 -3 -21 -17 -40 -30 -19 -13 -62 -50 -95 -82 -33 -31 -78 -70
-100 -86 -45 -33 -145 -136 -145 -149 0 -4 46 -5 103 -1 56 3 257 9 447 13
356 8 458 -3 162 -16 -92 -5 -232 -13 -312 -18 -80 -6 -209 -11 -288 -11 -137
0 -144 -1 -165 -23 -127 -136 -159 -174 -225 -269 l-32 -48 502 -1 c341 -1
468 -4 393 -10 -128 -9 -720 -29 -846 -29 l-86 0 -49 -82 c-27 -44 -59 -97
-71 -117 -12 -20 -29 -48 -38 -63 l-16 -28 63 -1 63 -1 -68 -12 c-65 -10 -70
-13 -87 -47 l-17 -37 726 -8 c462 -5 684 -11 611 -15 -63 -4 -392 -7 -730 -7
l-615 0 -33 -61 -33 -61 393 4 c357 5 386 4 318 -9 -54 -10 -166 -14 -397 -14
l-322 -1 -10 -37 c-15 -51 -14 -53 12 -54 17 -1 16 -3 -8 -8 -24 -5 -33 -15
-48 -56 -23 -58 -46 -142 -42 -147 2 -2 84 0 182 5 98 4 336 6 528 5 l350 -3
-195 -32 c-194 -33 -198 -33 -536 -33 l-341 0 -11 -25 c-7 -14 -12 -38 -12
-53 0 -16 -4 -32 -9 -37 -5 -6 -12 -27 -15 -47 l-7 -38 43 5 c24 3 138 14 253
26 116 11 266 31 335 45 114 23 159 26 520 34 217 5 608 9 869 9 l474 1 46 37
c25 20 49 39 53 42 4 3 -298 4 -670 2 -372 -1 -675 -1 -672 2 3 3 71 19 153
36 l147 31 585 0 c474 0 591 3 617 14 18 7 60 21 93 31 33 9 70 21 83 26 13 5
51 9 85 10 34 0 71 4 82 9 12 5 -176 9 -444 9 -255 1 -462 3 -460 6 15 14 237
36 459 45 140 6 433 17 650 26 360 15 1356 29 1320 19 -8 -3 -139 -24 -290
-47 l-275 -42 -450 -4 c-248 -2 -441 -8 -430 -12 11 -5 47 -9 80 -9 56 -1 225
-45 274 -70 12 -7 129 -12 318 -13 295 -1 284 -13 -17 -18 -69 -1 -145 -5
-170 -9 l-45 -7 41 -21 c22 -12 47 -29 54 -38 8 -9 32 -29 54 -44 37 -24 47
-26 96 -20 68 9 1376 11 1367 3 -6 -6 -384 -41 -952 -89 -176 -15 -330 -29
-343 -31 l-23 -5 23 -30 c13 -17 37 -53 53 -81 l30 -51 125 2 c68 1 199 11
290 22 148 19 238 21 880 24 l715 4 -230 -29 c-126 -16 -374 -48 -550 -71
-362 -46 -532 -58 -913 -63 -223 -2 -266 -5 -263 -17 2 -8 6 -26 9 -41 l4 -28
91 0 c50 0 88 -2 85 -5 -3 -3 -39 -11 -79 -18 -73 -12 -74 -13 -77 -45 -3 -25
0 -32 15 -32 10 0 233 23 497 50 343 36 517 50 615 49 75 0 132 -2 126 -5 -25
-9 -1117 -134 -1178 -134 l-67 0 0 -35 0 -35 103 -2 102 -2 -100 -5 -100 -6
-7 -45 c-3 -25 -7 -69 -7 -98 -1 -29 -5 -61 -10 -70 -5 -9 -12 -36 -16 -59
l-7 -43 464 -3 463 -2 -466 -3 -466 -2 -11 -25 c-7 -14 -12 -28 -12 -30 0 -3
109 -5 242 -5 133 0 239 -2 237 -5 -13 -13 -294 -45 -394 -45 l-114 0 -17 -32
c-9 -18 -30 -52 -45 -75 -16 -23 -29 -44 -29 -47 0 -3 384 -7 853 -8 585 -1
793 -3 662 -9 -625 -25 -760 -31 -1043 -44 -278 -13 -324 -13 -413 0 l-101 15
-57 -56 -56 -56 80 7 c172 15 264 11 385 -18 241 -57 246 -55 -173 -56 l-378
-1 -47 -27 -47 -28 170 -5 c193 -6 168 -12 -116 -30 -110 -7 -178 -17 -239
-34 -149 -43 -327 -49 -481 -15 -31 7 -114 6 -260 -1 -118 -6 -290 -10 -384
-8 l-170 3 194 19 c107 10 246 26 310 35 l116 17 -60 34 -60 35 -775 5 -775 5
430 48 c412 45 442 48 708 47 l279 0 -30 30 -30 30 -248 0 c-232 0 -277 -3
-743 -55 -363 -40 -566 -57 -756 -65 -143 -5 -289 -13 -325 -16 -36 -3 -62 -3
-59 0 3 4 118 22 255 41 205 28 303 35 554 44 291 10 322 13 629 61 287 44
340 50 482 50 l159 0 -40 61 c-21 33 -40 65 -42 71 -3 8 -41 7 -137 -6 -73
-10 -134 -16 -137 -14 -2 2 51 16 118 31 67 16 124 29 126 31 1 2 -4 19 -12
37 -8 19 -20 55 -27 82 l-12 47 -211 1 c-246 1 -235 14 18 23 93 3 170 7 171
8 1 2 -1 41 -4 88 l-6 85 -160 5 c-88 3 -158 7 -155 8 3 1 72 9 154 17 82 8
150 16 152 17 1 2 4 21 6 43 l3 40 -1105 -1 -1105 0 -3 -27 -3 -27 93 0 c106
0 104 -14 -3 -25 -37 -4 -74 -12 -82 -18 -10 -9 -12 -33 -9 -99 l4 -88 137 -1
c156 -1 143 -13 -28 -24 -97 -6 -111 -9 -107 -24 3 -9 8 -38 11 -66 12 -97 9
-93 62 -84 60 10 370 24 363 16 -3 -3 -93 -15 -200 -28 -107 -12 -199 -25
-203 -29 -5 -4 -2 -36 7 -70 9 -34 16 -70 16 -81 0 -18 9 -19 158 -21 l157 -1
-147 -10 c-162 -10 -159 -9 -142 -74 6 -22 11 -23 113 -24 l106 -1 -100 -15
c-55 -9 -102 -17 -103 -18 -2 -2 1 -19 6 -37 6 -18 13 -44 16 -58 l5 -25 1123
2 1123 1 -440 -43 -440 -44 -667 0 -668 -1 7 -32 c3 -18 11 -49 17 -68 10 -32
15 -36 56 -41 l45 -5 -39 -5 c-44 -5 -53 -16 -33 -43 13 -17 24 -17 288 18
l274 36 734 -2 734 -3 -274 -43 -274 -43 -731 1 c-402 0 -733 -2 -736 -5 -3
-4 -1 -17 6 -30 l11 -25 519 0 c286 0 517 -2 515 -4 -2 -3 -48 -12 -102 -20
-76 -13 -183 -16 -503 -16 l-405 0 3 -27 3 -28 170 -5 c182 -5 180 -8 -22 -36
-68 -10 -123 -20 -123 -23 0 -4 9 -31 19 -61 15 -43 25 -56 43 -59 42 -6 259
20 532 65 238 39 287 44 429 44 88 0 158 -2 156 -4 -10 -10 -1024 -146 -1087
-146 -32 0 -34 -2 -27 -27 4 -16 9 -30 11 -32 10 -11 1206 151 1362 184 61 12
157 15 550 14 262 -1 470 -3 462 -5 -8 -2 -292 -40 -630 -84 -338 -44 -790
-105 -1005 -135 -214 -30 -460 -60 -546 -66 l-156 -13 19 -48 c47 -124 58
-153 58 -155 0 -2 28 -3 63 -3 44 0 58 -3 47 -10 -8 -5 -34 -10 -57 -10 l-43
0 26 -67 c15 -38 38 -98 52 -136 l25 -67 46 5 c25 3 131 12 235 20 103 9 220
20 260 25 39 5 274 9 521 9 499 -1 498 -1 190 -54 -196 -33 -192 -32 -199 -51
-10 -27 12 -43 67 -47 29 -3 -201 -3 -511 -1 l-563 4 6 -23 c4 -12 10 -25 14
-29 3 -4 219 -10 479 -14 260 -4 470 -9 468 -11 -3 -3 -49 -13 -103 -24 -85
-16 -145 -19 -455 -19 -375 0 -376 0 -344 -42 10 -14 33 -18 127 -20 l114 -3
-112 -9 c-62 -5 -113 -9 -113 -10 0 -1 9 -21 20 -44 24 -50 25 -50 176 -21
130 24 671 63 619 44 -5 -2 -179 -23 -385 -46 -206 -22 -377 -43 -379 -45 -3
-3 36 -103 44 -112 6 -6 1392 172 1585 205 175 29 249 37 400 40 102 3 182 2
178 -2 -14 -15 -1126 -175 -1633 -235 -236 -28 -447 -53 -467 -56 l-37 -6 19
-46 c10 -26 30 -73 45 -104 l26 -58 711 0 c391 0 708 -3 705 -7 -16 -15 -956
-105 -1155 -110 -147 -4 -202 -8 -199 -17 3 -6 26 -61 53 -123 42 -97 51 -112
69 -108 11 3 117 16 236 30 166 19 262 25 410 24 120 -1 181 -4 159 -9 -19 -4
-204 -32 -410 -61 -206 -29 -377 -55 -379 -56 -13 -9 21 -53 41 -54 17 -1 19
-2 6 -6 -23 -6 -23 -15 2 -64 17 -32 25 -38 43 -34 34 7 955 67 975 63 23 -5
-171 -35 -348 -54 -105 -11 -148 -20 -157 -31 -9 -12 -68 -22 -230 -41 -120
-14 -219 -26 -221 -27 -4 -3 20 -65 25 -65 11 0 561 70 707 90 82 11 151 19
153 17 1 -2 -54 -24 -125 -50 -124 -45 -134 -47 -412 -77 -157 -17 -286 -33
-288 -34 -1 -2 2 -15 8 -30 8 -23 15 -27 38 -22 15 3 56 7 92 10 63 5 63 4
-20 -10 -46 -8 -86 -17 -89 -20 -3 -2 16 -48 42 -102 25 -53 68 -143 94 -199
l48 -103 365 -1 c201 0 361 -2 355 -5 -5 -2 -153 -31 -329 -64 -175 -32 -321
-61 -323 -64 -3 -2 11 -35 30 -73 l34 -68 234 -5 c274 -6 251 -20 -33 -20
-104 0 -188 -2 -188 -5 0 -3 4 -13 9 -23 5 -9 24 -50 43 -89 l32 -73 176 0
c96 0 240 7 320 15 106 10 290 14 679 15 294 0 532 -2 530 -4 -2 -3 -48 -12
-100 -20 -78 -13 -215 -16 -725 -18 -346 -1 -682 -4 -746 -6 l-117 -3 30 -67
c17 -37 37 -74 44 -82 7 -8 14 -18 15 -22 7 -33 13 -48 19 -48 4 0 84 12 177
27 154 24 198 26 499 29 182 1 321 0 310 -2 -56 -11 -573 -67 -735 -79 -186
-13 -220 -19 -220 -37 0 -17 31 -68 41 -68 6 0 77 11 158 24 80 14 182 28 227
32 76 6 81 5 86 -14 4 -13 16 -22 34 -24 45 -5 -311 -38 -409 -38 -87 0 -88 0
-81 -22 14 -47 21 -52 66 -51 l43 2 -35 -11 c-19 -6 -37 -13 -38 -14 -2 -1 13
-35 33 -76 21 -40 49 -95 63 -123 14 -27 36 -68 49 -91 l23 -41 146 3 c81 2
143 0 140 -4 -4 -3 -64 -13 -134 -22 -146 -18 -145 -16 -91 -105 l33 -55 386
-1 385 -1 -295 -43 c-162 -24 -325 -44 -362 -44 -38 -1 -68 -3 -68 -5 0 -6 82
-161 90 -169 9 -10 365 -9 749 2 273 9 387 3 275 -13 -27 -4 -98 -14 -159 -23
-77 -11 -218 -18 -471 -22 l-362 -6 15 -38 15 -37 321 0 c176 0 318 -2 315 -5
-16 -16 -133 -28 -345 -33 -133 -4 -244 -10 -248 -13 -6 -6 65 -148 87 -177 8
-8 57 -13 172 -14 l161 -2 -157 -3 c-87 -2 -158 -6 -158 -9 0 -2 11 -27 25
-55 l26 -50 42 6 c289 38 375 45 572 44 135 -1 198 -4 175 -9 -65 -16 -520
-70 -593 -71 -40 -1 -96 -4 -125 -7 l-54 -7 19 -25 c10 -14 29 -49 43 -77 13
-29 27 -53 31 -53 4 0 70 9 146 20 76 12 277 34 446 49 169 16 310 30 311 32
2 2 28 50 59 106 52 96 54 102 33 106 l-21 4 21 2 c12 0 27 7 33 15 11 13 91
172 91 181 0 3 -143 6 -317 6 l-318 1 90 19 c72 15 137 18 331 19 l242 0 16
34 c9 19 16 37 16 40 0 3 -80 6 -177 6 -103 0 -173 4 -168 9 6 5 87 21 180 36
220 34 213 32 231 67 9 16 14 31 12 33 -2 1 -131 -2 -288 -8 -158 -5 -308 -6
-335 -2 l-50 8 45 8 c25 5 182 20 350 34 185 16 310 31 317 38 11 11 83 151
83 162 0 3 -28 6 -62 6 l-63 2 73 11 c62 9 76 15 88 36 7 14 13 28 14 31 0 3
-134 -13 -297 -34 l-298 -40 -520 -2 c-527 -2 -555 4 -110 24 156 7 291 20
465 46 226 33 265 36 509 39 l263 2 13 25 c13 23 12 24 -23 30 l-37 6 42 2
c38 1 43 4 67 47 14 26 26 48 26 50 0 2 -64 5 -142 5 l-143 1 140 19 c77 10
145 18 150 18 6 1 18 14 28 29 l16 29 -453 7 c-250 4 -712 5 -1027 2 l-574 -5
330 44 330 44 720 1 720 1 107 215 c60 119 105 220 102 225 -3 5 -93 9 -200 9
-192 0 -194 0 -182 20 12 19 24 20 210 20 192 0 197 1 212 22 9 12 16 26 16
30 0 5 -93 8 -207 9 l-208 1 190 33 c105 19 207 34 227 34 37 1 39 3 74 72 19
39 34 73 32 74 -2 2 -91 -5 -198 -15 -207 -21 -277 -24 -195 -9 28 5 111 20
185 34 236 42 237 43 255 77 19 39 19 39 -7 33 -39 -8 -607 -57 -626 -53 -30
7 296 47 482 60 l178 12 19 45 c11 25 28 62 38 81 11 19 40 81 64 137 l45 102
-51 4 -52 3 56 2 56 2 26 53 25 52 -116 5 -117 5 121 9 c117 8 122 9 133 33
20 43 122 47 -839 -28 -456 -36 -575 -42 -900 -45 -250 -2 -365 0 -345 6 17 6
371 33 787 60 839 56 1133 76 1254 86 73 5 83 9 95 30 7 13 10 26 7 30 -5 5
-674 -38 -813 -52 -33 -3 -58 -4 -55 -1 3 4 199 29 435 57 237 28 439 52 451
55 14 3 31 27 52 74 18 39 32 75 32 80 0 8 -82 11 -247 12 l-248 1 215 44
c118 24 242 45 275 48 58 4 60 5 76 43 9 21 30 70 47 108 17 39 37 86 46 107
9 20 16 41 16 47 0 13 -57 14 -290 1 -325 -17 -417 -20 -380 -11 19 5 179 14
355 21 176 7 322 14 324 16 2 1 14 26 27 55 l24 52 -122 -7 c-170 -10 -394
-33 -486 -52 -46 -9 -207 -21 -402 -29 -211 -9 -541 -33 -939 -70 -338 -31
-624 -55 -635 -53 -45 6 767 109 934 118 467 26 558 32 735 46 105 8 251 25
325 36 93 15 208 23 369 27 l234 6 13 39 c8 21 30 71 49 112 19 40 35 75 35
78 0 3 -100 4 -222 1 l-223 -5 85 30 c47 17 156 45 244 62 152 30 159 32 177
62 10 16 17 31 15 33 -2 2 -34 -3 -72 -11 -38 -8 -70 -14 -71 -13 -1 1 9 15
23 30 19 22 36 29 81 35 50 6 60 11 71 35 8 16 12 31 9 34 -3 2 -88 -2 -189
-11 -228 -20 -333 -19 -158 1 99 11 129 18 146 34 19 18 33 20 117 17 82 -3
97 -1 106 14 22 36 13 38 -146 38 -200 1 -185 17 25 26 146 7 150 8 161 31 6
13 11 27 11 30 0 14 -315 -10 -537 -42 -213 -31 -265 -35 -435 -34 l-193 1
125 19 c69 10 199 33 290 50 154 29 184 31 460 36 315 6 320 6 320 56 0 18 -8
19 -177 13 -103 -4 -170 -3 -158 2 11 5 97 19 192 32 l171 24 16 33 c21 43 20
60 -1 66 -13 4 -12 5 5 6 12 0 25 9 28 19 15 43 58 150 70 175 8 15 13 27 11
27 -2 0 -62 -9 -133 -20 -241 -36 -460 -61 -515 -58 -45 2 0 14 266 66 176 35
339 66 362 69 26 3 43 12 47 22 3 9 12 32 19 51 29 70 59 156 67 188 7 29 6
32 -8 25 -10 -4 -199 -9 -422 -10 l-405 -2 210 44 210 44 222 1 c209 0 223 1
233 19 20 38 13 41 -82 41 l-93 1 60 28 c33 16 71 40 84 55 16 17 35 26 56 26
29 0 32 3 47 58 8 31 19 65 23 75 7 16 -13 17 -321 18 l-329 0 160 41 c147 37
174 41 340 47 l180 6 16 60 c9 33 19 73 23 88 l7 28 -48 -5 c-49 -6 -32 5 28
18 23 5 29 15 43 70 9 36 16 68 16 71 0 2 -510 6 -1132 7 l-1133 3 110 20
c104 18 171 20 1140 25 l1030 5 3 23 3 22 -812 0 c-447 0 -810 3 -807 6 4 3
64 14 135 25 116 17 189 19 811 19 726 0 682 -3 686 43 1 9 -101 13 -464 17
l-465 5 466 3 466 2 7 46 c3 26 6 71 6 100 0 45 -3 54 -17 54 -10 0 -115 -9
-233 -20 -175 -16 -291 -20 -625 -19 l-410 1 330 39 c479 56 621 69 800 77
l160 7 3 33 3 32 -53 0 c-46 0 -55 3 -63 23 -9 20 -18 22 -110 27 l-100 5 140
8 c77 5 148 11 158 13 13 4 17 16 17 53 l0 47 -342 -43 c-390 -48 -685 -71
-1003 -78 l-220 -5 355 44 c483 60 620 73 938 87 l272 13 0 28 0 28 -297 1
-298 2 290 36 290 37 0 29 c0 24 -4 30 -20 28 -87 -9 -229 -14 -223 -8 6 6
185 34 223 35 6 0 8 22 5 58 l-5 57 -50 -1 c-27 0 -306 -3 -620 -7 l-570 -7
95 21 c52 11 192 42 310 69 222 51 317 62 653 76 141 6 146 8 131 48 -5 14
-28 16 -147 16 -139 0 -140 0 -122 20 15 17 31 20 105 20 48 0 101 3 118 6 33
7 33 10 0 118 l-12 38 -60 -6 c-34 -3 -146 -8 -251 -10 l-190 -5 105 14 c58 7
164 21 235 31 72 9 132 18 134 20 1 1 -5 25 -14 53 l-17 51 -281 1 c-319 2
-310 10 37 33 120 8 220 17 222 19 3 2 -16 46 -42 96 -40 80 -49 92 -68 88
-105 -25 -215 -28 -991 -25 l-820 3 255 43 255 42 648 0 c356 0 647 2 647 5 0
3 -7 17 -16 30 l-16 25 -357 1 c-196 0 -351 2 -346 4 6 2 127 13 270 25 358
28 395 31 395 37 0 3 -9 18 -21 34 -18 26 -26 29 -77 30 l-57 1 45 10 c25 6
46 11 48 13 11 10 -193 291 -257 352 l-35 33 -245 2 -246 3 238 2 c130 2 237
7 237 11 0 5 -10 18 -23 30 -22 21 -33 22 -187 22 -205 0 -206 18 -1 22 l143
3 -22 28 c-13 17 -32 27 -48 28 -15 0 -21 3 -14 6 6 2 12 8 12 13 0 13 -245
231 -313 278 -34 24 -73 54 -87 67 -15 14 -29 25 -33 25 -4 0 -20 9 -35 20
-24 17 -55 21 -257 30 -126 6 -241 14 -255 17 -28 7 222 41 310 42 62 1 60 5
-24 55 l-60 36 -930 2 c-650 1 -868 3 -721 9 329 12 555 28 890 60 432 42 487
47 492 52 2 3 -15 12 -39 20 -211 77 -302 107 -353 117 -33 7 -78 16 -100 20
-24 5 -98 3 -185 -6 -83 -8 -248 -13 -385 -13 l-240 1 240 38 c132 21 228 38
213 39 -15 1 -30 6 -33 11 -4 6 -68 10 -163 9 -120 -1 -199 -8 -337 -29z
m1220 -165 c-19 -8 -632 -65 -800 -75 -202 -12 -707 -31 -712 -27 -3 4 205 44
422 82 124 22 153 23 615 23 267 0 481 -1 475 -3z m-1546 -229 c-2 -2 -166 -6
-364 -9 -198 -3 -346 -2 -330 3 29 7 703 14 694 6z m1426 -106 c154 -11 339
-24 410 -29 90 -6 -79 -9 -544 -10 l-674 -1 23 25 c23 25 24 25 206 25 122 0
185 4 190 11 4 7 25 9 58 5 28 -3 177 -15 331 -26z m-865 1 c0 -4 -28 -15 -62
-24 -53 -13 -167 -17 -728 -21 -366 -4 -759 -9 -875 -12 -115 -4 -208 -4 -205
-1 3 3 163 17 355 31 193 14 370 27 395 29 102 8 1120 6 1120 -2z m-1567 -208
c-51 -2 -136 -2 -190 0 -54 1 -12 3 92 3 105 0 149 -2 98 -3z m1535 0 c-93 -2
-243 -2 -335 0 -93 1 -17 3 167 3 184 0 260 -2 168 -3z m982 -3 c-85 -12 -402
-12 -395 0 4 6 89 9 228 9 148 -1 204 -4 167 -9z m995 -125 c-5 -2 -64 -8
-131 -14 -96 -8 -130 -7 -165 4 -41 13 -32 14 131 14 96 -1 171 -2 165 -4z
m-3526 -19 c-7 -7 -471 -38 -504 -34 -61 7 215 35 359 37 82 0 147 -1 145 -3z
m3031 -6 c14 -5 -66 -8 -188 -9 -140 -1 -211 2 -207 9 7 12 358 12 395 0z
m305 -130 c-11 -5 -573 -8 -1250 -7 -676 1 -1198 4 -1160 7 111 10 2432 10
2410 0z m-3882 -77 c-23 -2 -64 -2 -90 0 -26 2 -7 3 42 3 50 0 71 -1 48 -3z
m2445 0 c-136 -2 -361 -2 -500 0 -139 1 -28 2 247 2 275 0 389 -1 253 -2z
m-2621 -10 c-20 -2 -52 -2 -70 0 -17 2 0 4 38 4 39 0 53 -2 32 -4z m3421 -190
c-32 -2 -86 -2 -120 0 -35 2 -9 3 57 3 66 0 94 -1 63 -3z m1307 -128 c-5 -3
-93 -16 -195 -29 -404 -55 -419 -56 -1312 -56 -458 0 -839 4 -846 9 -13 8 522
21 878 21 208 0 349 11 520 40 89 15 170 18 535 18 237 0 426 -1 420 -3z
m-2932 -82 c-29 -2 -77 -2 -105 0 -29 2 -6 3 52 3 58 0 81 -1 53 -3z m2027
-123 c-14 -4 -61 -8 -105 -7 -77 0 -78 1 -25 7 82 10 161 10 130 0z m-1890
-76 c-8 -2 -118 -11 -245 -20 -267 -19 -1493 -31 -1815 -18 l-195 8 120 17
c107 15 234 17 1135 17 558 0 1008 -2 1000 -4z m1425 1 c-5 -2 -114 -22 -240
-45 l-231 -40 -519 2 c-606 3 -603 8 30 57 294 22 446 29 675 29 162 0 291 -1
285 -3z m1578 -152 c-7 -2 -19 -2 -25 0 -7 3 -2 5 12 5 14 0 19 -2 13 -5z
m-2983 -91 c-56 -13 -183 -16 -880 -18 -448 -1 -808 0 -800 2 103 28 222 32
970 32 722 0 771 -1 710 -16z m1555 7 c-175 -19 -407 -30 -725 -34 -190 -2
-335 -1 -322 1 12 3 75 14 140 24 99 15 181 18 547 18 265 -1 403 -4 360 -9z
m972 4 c-20 -2 -52 -2 -70 0 -17 2 0 4 38 4 39 0 53 -2 32 -4z m-4552 -134
c-115 -4 -254 -9 -308 -12 -54 -3 -97 -3 -94 -1 15 15 124 22 352 21 l260 0
-210 -8z m5155 5 c-8 -2 -213 -27 -455 -56 l-440 -51 -405 -5 c-223 -2 -402
-1 -398 3 3 4 163 31 355 60 l348 53 505 0 c278 0 498 -2 490 -4z m-4272 -81
c-27 -2 -69 -2 -95 0 -27 2 -5 3 47 3 52 0 74 -1 48 -3z m4152 -168 c0 -2 -24
-11 -52 -19 -44 -12 -170 -16 -713 -19 -363 -2 -635 0 -605 4 30 3 233 12 450
19 217 7 397 14 399 16 6 6 521 5 521 -1z m-745 -181 c-5 -2 -107 -22 -225
-44 l-214 -40 -286 1 -285 2 210 19 c116 10 320 30 455 42 227 22 369 30 345
20z m-4170 -614 c-22 -4 -166 -13 -320 -19 -154 -7 -291 -14 -303 -17 -13 -3
-21 -1 -18 4 4 8 92 19 276 36 75 6 404 4 365 -4z m4520 -50 c-11 -5 -231 -32
-490 -60 -577 -62 -535 -59 -535 -44 0 28 -44 44 -120 45 -62 1 -40 5 130 25
113 14 270 28 350 33 195 10 690 11 665 1z m-3408 -356 c-3 -3 -93 -26 -199
-50 l-193 -44 -770 1 c-423 0 -765 3 -758 5 6 3 177 25 380 49 l368 43 589 1
c324 1 587 -2 583 -5z m3853 -297 l-155 -40 -260 -6 c-235 -5 -262 -4 -277 11
-9 9 -38 19 -65 23 -95 13 -103 23 -18 25 44 1 220 7 390 14 171 7 362 13 425
13 l115 1 -155 -41z m-1200 -38 c162 -5 315 -13 340 -17 l45 -8 -50 -7 c-27
-4 -147 -16 -267 -27 l-216 -20 -90 29 c-49 16 -106 33 -126 36 -20 4 -39 11
-42 16 -6 11 28 11 406 -2z m570 -80 c-25 -4 -56 -7 -70 -7 -38 1 37 15 80 15
32 0 31 0 -10 -8z m0 -140 c-25 -4 -56 -7 -70 -7 -38 1 37 15 80 15 32 0 31 0
-10 -8z m-1075 -90 c-22 -4 -60 -7 -85 -7 l-45 1 45 7 c25 4 63 7 85 7 l40 1
-40 -9z m1645 1 c-30 -5 -246 -8 -480 -7 -234 0 -402 3 -375 7 28 4 244 7 480
7 237 0 405 -3 375 -7z m-3245 -101 c-137 -16 -257 -28 -265 -26 -8 1 53 14
135 29 102 17 186 26 265 26 l115 0 -250 -29z m2345 20 c-140 -8 -263 -26
-410 -60 -47 -11 -204 -35 -350 -54 -146 -19 -435 -59 -643 -90 l-378 -55
-587 2 c-582 3 -586 3 -502 20 52 10 208 23 405 33 427 21 522 32 1130 130
l520 83 475 -1 c339 0 436 -2 340 -8z m970 -14 c0 -8 -184 -63 -266 -80 -45
-9 -113 -15 -154 -13 l-75 3 37 17 c49 22 458 88 458 73z m-2565 -40 c-50 -20
-570 -83 -582 -71 -4 3 4 6 16 6 13 0 85 11 160 25 151 27 449 56 406 40z
m1800 -10 c-31 -12 -366 -55 -455 -59 -131 -6 -110 -2 170 33 204 26 312 36
285 26z m-2842 -62 c-7 -2 -19 -2 -25 0 -7 3 -2 5 12 5 14 0 19 -2 13 -5z
m-98 -18 c-73 -17 -283 -31 -220 -15 55 15 160 27 225 28 l55 0 -60 -13z
m2740 -34 c-6 -4 -74 -25 -152 -45 -140 -36 -143 -36 -315 -34 l-173 3 250 38
c138 20 277 39 310 40 33 2 67 4 75 5 8 1 10 -1 5 -7z m250 -7 c-75 -16 -93
-16 -40 1 22 8 54 13 70 13 19 0 8 -5 -30 -14z m-3423 -56 c-15 -15 -249 -24
-289 -12 -20 6 18 11 127 14 85 3 159 7 165 8 5 1 4 -3 -3 -10z m2597 -82 c-9
-9 -413 -87 -599 -115 -295 -45 -571 -82 -582 -79 -6 2 59 19 143 37 85 18
242 56 349 83 107 28 227 56 265 63 63 12 435 21 424 11z m494 -3 c-13 -2 -33
-2 -45 0 -13 2 -3 4 22 4 25 0 35 -2 23 -4z m-1384 -57 c-12 -12 -490 -112
-719 -151 -215 -35 -325 -48 -578 -65 -173 -12 -316 -20 -318 -18 -5 6 612 99
1111 168 237 33 437 62 445 64 22 5 64 7 59 2z m1296 -12 c-16 -6 -409 -54
-436 -53 -45 2 96 27 216 39 66 6 129 13 140 14 31 5 91 5 80 0z m1053 1 c-11
-11 -673 -96 -783 -100 l-120 -5 245 45 c135 25 283 49 330 54 94 9 336 14
328 6z m-3398 -71 c-13 -3 -560 -88 -1080 -168 -140 -22 -475 -45 -445 -32 23
11 440 66 570 76 177 14 245 23 480 67 185 34 385 61 455 61 19 0 28 -2 20 -4z
m3079 -68 c-6 -6 -564 -113 -652 -125 -72 -10 -646 -16 -636 -7 2 2 76 11 164
20 88 10 279 32 425 51 146 19 342 39 435 45 94 6 177 12 185 14 23 5 84 7 79
2z m-1794 -122 c-55 -8 -116 -13 -135 -11 -20 1 5 7 60 13 137 16 193 14 75
-2z m325 -110 c-8 -2 -85 -13 -170 -25 -124 -17 -216 -22 -460 -25 l-305 -3
113 20 c70 11 200 22 340 27 233 9 509 12 482 6z m1355 -55 c-259 -53 -418
-67 -1055 -89 -398 -14 -675 -35 -886 -65 -144 -21 -201 -25 -360 -23 l-189 3
760 63 c418 35 900 72 1070 83 171 11 393 26 495 33 247 18 272 17 165 -5z
m-4058 -45 c-3 -3 -12 -4 -19 -1 -8 3 -5 6 6 6 11 1 17 -2 13 -5z m-432 -73
c-29 -12 -155 -20 -155 -10 0 9 43 15 120 17 36 0 48 -2 35 -7z m1645 0 l135
-6 -205 -7 c-221 -9 -442 -9 -424 -2 46 19 268 26 494 15z m1805 -42 c-27 -5
-162 -11 -300 -13 -137 -2 -230 -2 -205 1 101 10 322 20 435 20 100 0 112 -1
70 -8z m-1436 -83 c-2 -2 -83 -18 -179 -36 -96 -17 -195 -35 -220 -41 -57 -13
-628 -25 -617 -13 5 5 99 28 210 50 l202 42 304 1 c167 1 302 -1 300 -3z m810
0 c-2 -2 -105 -23 -229 -47 -216 -41 -234 -43 -460 -47 -147 -2 -231 0 -225 6
6 5 105 26 220 46 116 20 217 38 225 40 22 5 474 7 469 2z m336 -22 c-84 -24
-455 -79 -439 -65 15 12 393 77 459 79 23 0 18 -3 -20 -14z m-1425 -144 c0 -5
-7 -10 -16 -10 -8 0 -110 -20 -226 -45 l-210 -45 -272 2 -271 3 155 27 c85 15
180 30 210 33 30 3 116 12 190 20 187 20 201 21 328 23 69 1 112 -2 112 -8z
m1269 -14 c-15 -15 -251 -37 -369 -34 l-135 3 135 16 c122 15 379 25 369 15z
m1380 -146 c-70 -35 -107 -45 -420 -106 l-344 -66 -275 -9 c-292 -8 -428 -9
-395 -2 51 11 1454 221 1480 221 25 1 17 -5 -46 -38z m-610 5 c-13 -13 -864
-130 -1194 -165 -444 -46 -466 -47 -860 -60 -390 -13 -511 -23 -859 -71 -225
-30 -320 -39 -434 -39 -80 0 -143 2 -141 5 12 11 701 102 1399 185 421 50 825
100 898 111 114 16 193 19 555 20 232 1 460 4 507 8 120 11 134 12 129 6z
m216 -260 c-170 -19 -319 -34 -330 -33 -18 0 139 35 255 57 25 5 122 9 215 9
l170 0 -310 -33z m-766 10 c-3 -2 -99 -23 -214 -45 l-209 -40 -615 0 c-338 0
-612 2 -610 4 2 3 120 17 262 31 203 21 362 29 750 39 628 17 641 17 636 11z
m-1104 -177 l-210 -30 -885 -4 c-517 -2 -876 0 -864 5 12 5 81 15 155 21 379
33 531 37 1264 38 l750 0 -210 -30z m1234 -142 c-10 -10 -197 -36 -399 -56
-148 -14 -267 -20 -380 -18 l-165 3 385 36 c345 33 571 47 559 35z m-1511 -63
c-15 -2 -42 -2 -60 0 -18 2 -6 4 27 4 33 0 48 -2 33 -4z m-759 -68 c-8 -7
-431 -56 -448 -52 -12 4 -11 5 4 6 11 1 85 12 165 25 129 22 291 34 279 21z
m921 -5 c-14 -4 -111 -13 -217 -19 -105 -7 -235 -18 -289 -26 -85 -13 -394
-22 -383 -11 2 2 135 16 294 30 160 14 306 27 325 29 73 8 295 5 270 -3z
m1945 -41 c-232 -34 -312 -37 -120 -3 77 13 145 26 150 28 6 3 44 4 85 4 67 0
55 -3 -115 -29z m-3660 1 c-55 -11 -120 -18 -145 -18 -29 0 -5 7 70 18 152 23
202 23 75 0z m2774 6 c-2 -2 -105 -6 -229 -8 -124 -3 -198 -2 -165 2 63 7 401
13 394 6z m-574 -82 c-33 -13 -927 -124 -992 -123 -43 1 -67 4 -53 6 14 2 156
27 315 55 238 43 319 53 455 58 215 8 287 9 275 4z m-880 -9 c-40 -15 -945
-119 -974 -112 -9 2 25 9 74 16 50 8 218 33 375 56 217 33 315 43 410 43 69 0
121 -1 115 -3z m2274 -19 c-2 -2 -113 -25 -246 -50 l-242 -46 -298 2 -298 3
395 43 c217 24 404 44 415 46 31 5 279 7 274 2z m-854 -161 c-5 -3 -158 -30
-340 -61 -308 -52 -370 -59 -947 -108 -340 -29 -615 -49 -610 -45 4 4 75 30
157 58 148 49 305 77 825 150 62 8 936 14 915 6z m720 -1 c-46 -8 -647 -55
-651 -52 -2 3 58 16 134 30 118 22 165 25 337 25 110 0 191 -1 180 -3z m228
-61 c-7 -2 -21 -2 -30 0 -10 3 -4 5 12 5 17 0 24 -2 18 -5z m-158 -19 c-512
-68 -1831 -217 -2074 -234 -161 -12 -295 -19 -297 -17 -3 2 37 10 88 16 51 7
161 24 243 37 83 13 521 60 975 105 454 44 881 86 950 93 163 17 244 17 115 0z
m-2276 -168 c-11 -12 -581 -60 -619 -53 -20 3 -19 5 10 6 19 1 150 13 290 25
275 25 326 28 319 22z m-882 -82 c-3 -3 -12 -4 -19 -1 -8 3 -5 6 6 6 11 1 17
-2 13 -5z m488 -154 c-38 -4 -189 -7 -335 -7 -146 0 -238 3 -205 7 33 4 184 7
335 7 169 0 248 -3 205 -7z m2185 0 c-14 -4 -356 -8 -760 -7 -404 0 -690 4
-635 7 151 9 1424 9 1395 0z m-895 -76 c-11 -2 -101 -11 -200 -20 -138 -12
-349 -17 -910 -20 -430 -3 -724 -1 -715 4 8 5 89 15 180 22 91 6 170 13 175
15 6 2 343 3 750 3 407 0 731 -2 720 -4z m1193 -4 c-45 -27 -246 -40 -587 -39
l-346 1 200 19 c283 25 276 25 525 27 152 1 220 -2 208 -8z m-523 -105 c6 -2
-309 -3 -700 -2 -390 1 -642 4 -560 7 153 5 1242 1 1260 -5z m-1300 -126
c-103 -15 -539 -59 -543 -55 -13 13 388 64 503 64 96 -1 98 -1 40 -9z m854 7
c-6 -7 -543 -48 -575 -44 -45 5 369 45 480 47 55 0 97 -1 95 -3z m859 -3 c-10
-2 -26 -2 -35 0 -10 3 -2 5 17 5 19 0 27 -2 18 -5z m-90 -10 c-10 -2 -26 -2
-35 0 -10 3 -2 5 17 5 19 0 27 -2 18 -5z m-1415 -40 c-7 -2 -19 -2 -25 0 -7 3
-2 5 12 5 14 0 19 -2 13 -5z m862 -3 c-54 -16 -372 -59 -782 -105 -354 -39
-428 -45 -605 -44 -112 0 -198 2 -193 5 10 3 176 20 1000 99 423 41 551 52
585 53 22 0 22 -1 -5 -8z m-62 -157 c-7 -2 -19 -2 -25 0 -7 3 -2 5 12 5 14 0
19 -2 13 -5z m-1218 -74 c-22 -4 -53 -8 -70 -7 -29 1 -29 1 5 8 19 4 51 7 70
8 l35 0 -40 -9z m660 1 c-16 -4 -79 -8 -140 -8 -70 0 -99 3 -80 8 17 4 80 8
140 8 70 0 99 -3 80 -8z m1240 1 c-11 -4 -99 -20 -196 -36 l-177 -28 -63 21
c-35 12 -55 22 -44 22 11 1 76 7 145 14 137 15 367 19 335 7z m-645 -78 c99
-5 119 -8 99 -17 -15 -7 -175 -11 -444 -12 -231 -1 -404 1 -385 3 262 31 492
39 730 26z m260 -97 c0 -2 -30 -11 -67 -20 -67 -15 -413 -28 -413 -15 0 14
205 37 338 38 78 0 142 -1 142 -3z m-95 -301 c-20 -8 -483 -55 -696 -71 -361
-27 -287 -11 136 29 220 21 409 40 420 41 30 5 152 5 140 1z m-987 -92 c-10
-2 -28 -2 -40 0 -13 2 -5 4 17 4 22 1 32 -1 23 -4z m-609 -97 c-6 -6 -153 -26
-157 -21 -6 6 80 23 122 24 22 1 37 -1 35 -3z m1216 -167 c-95 -17 -142 -19
-350 -14 -903 20 -938 32 -95 32 l555 1 -110 -19z m-411 -189 c-8 -8 -295 -30
-384 -30 -23 1 -23 2 -6 11 33 20 409 38 390 19z m651 -201 c-77 -10 -293 -37
-480 -59 -328 -40 -344 -41 -447 -28 -59 6 -105 14 -103 17 3 2 132 23 287 46
l283 43 300 0 300 0 -140 -19z m-767 -176 c-10 -2 -28 -2 -40 0 -13 2 -5 4 17
4 22 1 32 -1 23 -4z m-175 -10 c-13 -2 -35 -2 -50 0 -16 2 -5 4 22 4 28 0 40
-2 28 -4z"/>
<path d="M4524 9250 c-151 -12 -404 -44 -679 -85 -194 -29 -260 -35 -417 -36
l-187 -2 -5 -26 c-3 -14 -8 -44 -11 -66 l-6 -40 103 2 103 1 -98 -13 c-54 -7
-99 -14 -101 -16 -2 -2 -6 -17 -10 -32 -6 -27 -6 -28 26 -23 67 11 233 27 644
61 388 32 447 35 775 33 195 -1 334 -3 309 -5 -25 -2 -223 -27 -440 -54 l-395
-51 -459 -1 c-449 -2 -459 -2 -467 -22 -4 -11 -8 -30 -8 -42 -1 -22 2 -23 92
-24 97 -1 85 -9 -35 -24 -56 -6 -58 -8 -58 -36 0 -16 2 -29 5 -29 2 0 160 20
352 45 l347 45 768 0 767 0 10 38 c6 20 11 39 11 42 0 3 -187 6 -415 5 -229 0
-407 3 -398 7 50 19 594 68 759 68 55 0 74 4 86 18 18 19 78 125 78 136 0 4
-346 6 -770 4 -423 -2 -766 0 -762 3 10 9 324 46 507 60 101 8 303 10 622 6
l472 -5 16 25 c9 14 15 27 12 29 -9 9 -1035 12 -1143 4z"/>
<path d="M5995 1790 l16 -30 384 0 384 0 16 30 16 30 -416 0 -416 0 16 -30z"/>
<path d="M6040 1706 c0 -7 10 -28 23 -47 12 -19 42 -73 66 -121 l43 -88 42 -2
c36 -1 37 -2 9 -5 -37 -5 -40 -13 -17 -48 16 -25 17 -25 183 -25 91 0 171 4
177 8 13 9 46 74 40 80 -3 2 -20 8 -38 12 -31 8 -31 8 14 9 47 1 48 2 74 54
14 28 41 77 60 108 19 31 34 62 34 68 0 8 -100 11 -355 11 -293 0 -355 -2
-355 -14z"/>
<path d="M6318 1194 c51 -96 76 -115 106 -81 17 20 86 150 86 162 0 3 -54 5
-119 5 l-119 0 46 -86z"/>
</g>
</svg>
